# xmcd
#
# Track frame offsets:
#	215
#	26940
#	42690
#	63682
#	75867
#	84227
#	93975
#	105695
#	116395
#	126077
#	137140
#	150317
#	167980
#
# Disc length: 2346
#
# Revision: 2
# Processed by: cddbd v1.5.1PL0 Copyright (c) Steve Scherf et al.
# Submitted via: DiscPlay 4.0.4
# Normalized: r1:TDELIM( - )
#
DISCID=a409280d
DTITLE=Various Artist - Daughters Of Texas
DYEAR=1900
DGENRE=
TTITLE0=Young And Dumb - Lou Ann Barton
TTITLE1=I Feel Like Breaking Up Somebody's Home - Lou Ann Barton
TTITLE2=In The Mood - Keri Leigh and the Blue Devils
TTITLE3=Say the Wrong Thing - Kathy and the Kilowatts
TTITLE4=Rock and Roll Fever - Diane Colbe
TTITLE5=Horny Old Buzzard, Dirty Old Man - Big Martha
TTITLE6=Your Magic Touch (Quit Workin' On Me) - Big Martha
TTITLE7=Nobdy Knows You When You're Down And Out - Janis Joplin
TTITLE8=Walk Right In - Janis Joplin
TTITLE9=I Can Tell I'm Losing You - Jeanette Williams
TTITLE10=Stepping Up In Class - Kathy and the Kilowatts
TTITLE11=Breaking Mama's Rules - Diane Colbe
TTITLE12=Ain't Nobody Gonna Take My Man - Levenia Lewis
EXTD=
EXTT0=
EXTT1=
EXTT2=
EXTT3=
EXTT4=
EXTT5=
EXTT6=
EXTT7=
EXTT8=
EXTT9=
EXTT10=
EXTT11=
EXTT12=
PLAYORDER=
